<?xml version="1.0" encoding="UTF-8"?>
<svg version="1.1" xmlns="http://www.w3.org/2000/svg" width="500" height="500">
<path d="M0 0 C0.33 0.66 0.66 1.32 1 2 C1.66 2 2.32 2 3 2 C4.2039337 5.75399798 4.09877617 9.33217412 4.0625 13.25 C4.05347656 14.51328125 4.04445313 15.7765625 4.03515625 17.078125 C4.01775391 18.52445313 4.01775391 18.52445313 4 20 C4.66 20.33 5.32 20.66 6 21 C6.042721 22.66611905 6.04063832 24.33382885 6 26 C5.67 26.33 5.34 26.66 5 27 C5.1498591 28.8028447 5.374246 30.59957644 5.62890625 32.390625 C5.77650391 33.49277344 5.92410156 34.59492188 6.07617188 35.73046875 C6.39834625 38.06202791 6.72639747 40.39278315 7.06054688 42.72265625 C7.20685547 43.82996094 7.35316406 44.93726563 7.50390625 46.078125 C7.64642822 47.09293945 7.7889502 48.10775391 7.93579102 49.15332031 C8.00740122 52.3281302 7.47773166 54.20527348 6 57 C4.34151823 58.01351664 2.67334039 59.01120795 1 60 C-0.61221471 61.76614476 -2.09910272 63.59182348 -3.5703125 65.4765625 C-5 67 -5 67 -8 68 C-8.804375 68.969375 -9.60875 69.93875 -10.4375 70.9375 C-12.77207412 73.72760077 -13.84997945 74.58792182 -17 76 C-17.66 76.99 -18.32 77.98 -19 79 C-19.66 79 -20.32 79 -21 79 C-21 79.66 -21 80.32 -21 81 C-21.61875 81.0825 -22.2375 81.165 -22.875 81.25 C-25.14390805 81.78597843 -25.14390805 81.78597843 -26 83.8125 C-26.33 84.534375 -26.66 85.25625 -27 86 C-29.35633233 88.66037521 -30.59218586 89.86406195 -34 91 C-34.804375 91.969375 -35.60875 92.93875 -36.4375 93.9375 C-38.83587072 96.80384549 -39.81555415 97.50729101 -43 99 C-44.70496537 100.62746694 -46.37897032 102.28891311 -48 104 C-48.66 103.67 -49.32 103.34 -50 103 C-50.4021875 103.8971875 -50.4021875 103.8971875 -50.8125 104.8125 C-52.01540894 107.02838488 -53.15933933 108.30092861 -55 110 C-55.66 110.70125 -56.32 111.4025 -57 112.125 C-59 114 -59 114 -62 115 C-62.45375 115.804375 -62.9075 116.60875 -63.375 117.4375 C-65.32428998 120.51138035 -66.69884855 120.73032636 -70 122 C-70.309375 122.639375 -70.61875 123.27875 -70.9375 123.9375 C-72.51385493 126.9974831 -74.93292486 127.66648907 -78 129 C-77.30087159 133.8938989 -74.20434983 136.03652014 -70.5 139 C-68 141 -68 141 -66.0625 143 C-63.96701594 145.17429591 -63.96701594 145.17429591 -60.875 146.9375 C-58 149 -58 149 -56.9375 151.6875 C-56.628125 152.450625 -56.31875 153.21375 -56 154 C-55.21625 154.144375 -54.4325 154.28875 -53.625 154.4375 C-49.76288644 155.26509576 -49.09684408 157.78920751 -47 161 C-45.35636866 161.72159424 -43.68949614 162.39351421 -42 163 C-40.97971135 164.31787285 -39.98028616 165.65210653 -39 167 C-38.175 167.474375 -37.35 167.94875 -36.5 168.4375 C-33.57792883 170.26379448 -32.72562951 172.07393258 -31 175 C-29.03327085 176.1500831 -29.03327085 176.1500831 -27 177 C-25.25 178.5 -25.25 178.5 -24 180 C-24 180.66 -24 181.32 -24 182 C-23.401875 182.09410156 -22.80375 182.18820312 -22.1875 182.28515625 C-19.50662287 183.1612286 -18.69709976 184.21927994 -17 186.4375 C-14.86716004 189.2136694 -13.15410899 190.51343224 -10 192 C-8.97971135 193.31787285 -7.98028616 194.65210653 -7 196 C-4.97973478 197.62924615 -2.88145398 199.08232362 -0.75 200.5625 C-0.1725 201.036875 0.405 201.51125 1 202 C1 202.66 1 203.32 1 204 C1.78375 204.20625 2.5675 204.4125 3.375 204.625 C6 206 6 206 7.25 208.3125 C8.36959745 213.81718748 7.43066135 218.85881865 6.625 224.375 C6.47289062 225.49261719 6.32078125 226.61023438 6.1640625 227.76171875 C5.78826316 230.5097514 5.39989822 233.25538853 5 236 C5.33 236 5.66 236 6 236 C6 237.65 6 239.3 6 241 C5.34 241.33 4.68 241.66 4 242 C4.01160156 242.85722656 4.02320313 243.71445312 4.03515625 244.59765625 C4.0818041 250.50860552 4.08249916 256.18156704 3 262 C1.35 262.33 -0.3 262.66 -2 263 C-2.33 262.01 -2.66 261.02 -3 260 C-3.598125 259.896875 -4.19625 259.79375 -4.8125 259.6875 C-8.19858788 258.62330095 -9.12969931 255.89594946 -11 253 C-11.99 252.67 -12.98 252.34 -14 252 C-14 251.34 -14 250.68 -14 250 C-15.98 249.01 -15.98 249.01 -18 248 C-18 247.01 -18 246.02 -18 245 C-19.1446875 244.6596875 -19.1446875 244.6596875 -20.3125 244.3125 C-23.60230709 242.70585002 -24.18226001 241.10530582 -26 238 C-27.2375 237.2575 -27.2375 237.2575 -28.5 236.5 C-31.44881499 234.73071101 -32.30398658 232.92947772 -34 230 C-34.99 229.67 -35.98 229.34 -37 229 C-39.1875 227.125 -39.1875 227.125 -41 225 C-41 224.01 -41 223.02 -41 222 C-42.1446875 221.62875 -42.1446875 221.62875 -43.3125 221.25 C-46.26080945 219.87869328 -47.35834532 218.7648921 -49 216 C-49 215.34 -49 214.68 -49 214 C-50.1446875 213.62875 -50.1446875 213.62875 -51.3125 213.25 C-54.26080945 211.87869328 -55.35834532 210.7648921 -57 208 C-57 207.34 -57 206.68 -57 206 C-57.598125 205.9175 -58.19625 205.835 -58.8125 205.75 C-61.62932273 204.78423221 -62.47799132 203.51131433 -64 201 C-64 200.34 -64 199.68 -64 199 C-64.8353125 198.6596875 -64.8353125 198.6596875 -65.6875 198.3125 C-68.64187072 196.63569499 -70.63102343 194.42675648 -73 192 C-74.299375 191.0409375 -74.299375 191.0409375 -75.625 190.0625 C-78 188 -78 188 -79.5 184.9375 C-81.24148866 181.52708471 -82.74086119 180.83848856 -86 179 C-86.68268138 177.67479497 -87.3507041 176.34187818 -88 175 C-88.66 174.67 -89.32 174.34 -90 174 C-92 173 -92 173 -92.875 171.125 C-93.93199991 168.71332677 -93.93199991 168.71332677 -96.875 167.125 C-100.31995397 164.7824313 -101.74981488 162.45028386 -104 159 C-105.32520503 158.31731862 -106.65812182 157.6492959 -108 157 C-108.7115625 155.7934375 -108.7115625 155.7934375 -109.4375 154.5625 C-111.25714789 151.57827747 -112.96286164 150.63538219 -116 149 C-116.66 148.34 -117.32 147.68 -118 147 C-118 146.01 -118 145.02 -118 144 C-118.5775 143.938125 -119.155 143.87625 -119.75 143.8125 C-122.92448483 142.66615826 -124.12848575 140.74043158 -126 138 C-126 137.34 -126 136.68 -126 136 C-127.32 135.67 -128.64 135.34 -130 135 C-130.8125 132.8125 -130.8125 132.8125 -131 130 C-128.875 127.5 -128.875 127.5 -126 125 C-125.175 124.175 -124.35 123.35 -123.5 122.5 C-121 120 -118.5 117.5 -116 115 C-115.21625 114.195625 -114.4325 113.39125 -113.625 112.5625 C-111.64771378 110.63229202 -109.68311437 108.88208047 -107.5625 107.125 C-104.50017344 104.54095438 -101.95787103 101.74154098 -99.40234375 98.6640625 C-96.70229187 95.46010122 -93.80962521 92.62745953 -90.5 90.0625 C-87.57836062 87.65214751 -85.3852672 84.93571348 -83 82 C-81.68671343 80.64691687 -80.35500919 79.31129922 -79 78 C-78.360625 77.360625 -77.72125 76.72125 -77.0625 76.0625 C-76.381875 75.381875 -75.70125 74.70125 -75 74 C-74.195625 73.175 -73.39125 72.35 -72.5625 71.5 C-70 69 -70 69 -67.5 67.0625 C-64.57679375 64.65085484 -62.39404964 61.9327108 -60 59 C-57.5119851 56.32059933 -55.26394876 54.17010031 -52.1875 52.1875 C-46.20730315 48.08344334 -41.66656732 43.23316444 -38 37 C-37.38125 36.71125 -36.7625 36.4225 -36.125 36.125 C-33.19816574 34.57549951 -31.99473936 32.31629387 -30.24609375 29.55859375 C-29 28 -29 28 -26 27 C-25.54625 26.21625 -25.0925 25.4325 -24.625 24.625 C-22.7349802 21.5718911 -21.04903347 20.81490087 -18 19 C-16.28859531 17.03814584 -14.62126675 15.03697617 -13 13 C-11.68671343 11.64691687 -10.35500919 10.31129922 -9 9 C-8.29875 8.2575 -7.5975 7.515 -6.875 6.75 C-5 5 -5 5 -3 5 C-2.690625 4.360625 -2.38125 3.72125 -2.0625 3.0625 C-1 1 -1 1 0 0 Z " fill="#F86120" transform="translate(253,171)"/>
<path d="M0 0 C1.75390625 1.1796875 1.75390625 1.1796875 3.5625 2.875 C6.08137361 5.22310453 6.08137361 5.22310453 9 7 C9.680625 8.2065625 9.680625 8.2065625 10.375 9.4375 C11.72885648 12.09107924 11.72885648 12.09107924 13.9375 12.875 C16.78907047 14.43040207 17.51669419 16.57715229 18.9921875 19.39453125 C20.30352799 21.48352715 21.77539307 22.03600366 24 23 C24.66666667 24.33333333 25.33333333 25.66666667 26 27 C26.66 27.33 27.32 27.66 28 28 C30.56160784 29.28080392 30.76461393 30.4565581 32 33 C35.44296578 36.83111743 35.44296578 36.83111743 40 39 C40.639375 39.969375 41.27875 40.93875 41.9375 41.9375 C43.90250982 44.85524185 44.7832197 45.85114989 48 47 C48 47.99 48 48.98 48 50 C48.99 50 49.98 50 51 50 C53.375 52.1875 53.375 52.1875 56 55 C56.845625 55.825 57.69125 56.65 58.5625 57.5 C61 60 61 60 63 62.5625 C64.93971746 65.10546545 64.93971746 65.10546545 67.625 67.0625 C70.00746835 69.0060926 70.70163126 70.3105219 72 73 C73.485 73.495 73.485 73.495 75 74 C75 74.66 75 75.32 75 76 C75.556875 76.226875 76.11375 76.45375 76.6875 76.6875 C79.6469509 78.36718835 81.66126784 80.54133285 84 83 C84.5775 83.53625 85.155 84.0725 85.75 84.625 C87 86 87 86 88 89 C89.175625 89.680625 89.175625 89.680625 90.375 90.375 C93 92 93 92 94.4375 94.4375 C96.40753742 97.66836138 98.86351669 98.95446741 102 101 C102.33 101.99 102.66 102.98 103 104 C104.4540625 104.9590625 104.4540625 104.9590625 105.9375 105.9375 C109.0642543 108.0432733 109.45968363 108.81667949 111 112 C111.804375 112.45375 112.60875 112.9075 113.4375 113.375 C116.66461114 115.42146073 117.31971985 117.6394397 119 121 C121.00572641 121.81446109 121.00572641 121.81446109 123 122 C125 124 125 124 125 128 C125.9590625 128.185625 125.9590625 128.185625 126.9375 128.375 C127.618125 128.58125 128.29875 128.7875 129 129 C130 131 130 131 129.375 133.3125 C127.71569172 136.55569345 125.66243728 138.52773681 123 141 C122.278125 141.763125 121.55625 142.52625 120.8125 143.3125 C119 145 119 145 117 145 C116.62875 146.1446875 116.62875 146.1446875 116.25 147.3125 C114.87869328 150.26080945 113.7648921 151.35834532 111 153 C110.34 153 109.68 153 109 153 C108.731875 153.598125 108.46375 154.19625 108.1875 154.8125 C107.00082594 156.99847854 105.90400887 158.41332594 104 160 C103.34 160 102.68 160 102 160 C101.7525 160.5775 101.505 161.155 101.25 161.75 C99.81700012 164.32939979 98.21575324 166.06121592 96 168 C95.34 168 94.68 168 94 168 C93.62875 169.1446875 93.62875 169.1446875 93.25 170.3125 C91.87869328 173.26080945 90.7648921 174.35834532 88 176 C87.34 176 86.68 176 86 176 C85.773125 176.5775 85.54625 177.155 85.3125 177.75 C84 180 84 180 81.6875 181.8125 C78.80554586 184.15827663 77.16322586 186.49095467 75.2109375 189.609375 C74.81132812 190.06828125 74.41171875 190.5271875 74 191 C73.01 191 72.02 191 71 191 C70.79375 191.721875 70.5875 192.44375 70.375 193.1875 C68.90165496 196.2011603 67.20298534 197.71127352 64.578125 199.75 C62.19019902 201.64142652 60.12436909 203.82115991 58 206 C57.113125 206.86625 56.22625 207.7325 55.3125 208.625 C52.88724324 210.97085755 52.88724324 210.97085755 51 214 C50.01 214.33 49.02 214.66 48 215 C47.360625 215.969375 46.72125 216.93875 46.0625 217.9375 C43.98361205 221.02433362 43.17745683 221.51718681 40 223 C39.71125 223.61875 39.4225 224.2375 39.125 224.875 C38 227 38 227 35.125 228.875 C31.68956345 231.21109685 30.22474462 233.54781008 28 237 C27.01 237.33 26.02 237.66 25 238 C24.360625 238.969375 23.72125 239.93875 23.0625 240.9375 C20.9567267 244.0642543 20.18332051 244.45968363 17 246 C16.2884375 247.2065625 16.2884375 247.2065625 15.5625 248.4375 C13.719404 251.46017743 12.00924333 252.20878373 9 254 C7.30911778 255.97956942 5.64169528 257.97945196 4 260 C1.9375 261.9375 1.9375 261.9375 0 263 C-2.12109375 262.56640625 -2.12109375 262.56640625 -4 262 C-4.33921452 258.81309767 -4.67029417 255.62539896 -5 252.4375 C-5.09539062 251.54224609 -5.19078125 250.64699219 -5.2890625 249.72460938 C-5.6945304 245.77129735 -6.05691039 241.88676999 -6 237.91015625 C-6 236.94980469 -6 235.98945313 -6 235 C-6.33 234.67 -6.66 234.34 -7 234 C-7.08748207 232.07332493 -7.10697334 230.14348139 -7.09765625 228.21484375 C-7.09443359 227.04501953 -7.09121094 225.87519531 -7.08789062 224.66992188 C-7.07951172 223.43822266 -7.07113281 222.20652344 -7.0625 220.9375 C-7.05798828 219.70193359 -7.05347656 218.46636719 -7.04882812 217.19335938 C-7.03699608 214.12885883 -7.02051173 211.06445279 -7 208 C-6.37295166 207.70488525 -5.74590332 207.40977051 -5.09985352 207.10571289 C-2.71902201 205.85204635 -1.58672244 204.5441068 0.0625 202.4375 C2.12532214 199.80562347 2.71297618 199.09567461 6 198 C6.804375 197.030625 7.60875 196.06125 8.4375 195.0625 C10.80416401 192.23404789 11.82231148 191.43508514 15 190 C16.37701298 188.71182656 17.70644173 187.37195574 19 186 C20.66666667 184.33333333 22.33333333 182.66666667 24 181 C24.825 180.13375 25.65 179.2675 26.5 178.375 C29 176 29 176 31.5 174.5625 C33.85798908 173.08875683 34.98912594 171.94418357 36.6875 169.8125 C37.450625 168.884375 38.21375 167.95625 39 167 C39.66 167 40.32 167 41 167 C42.50660662 165.43752272 42.50660662 165.43752272 44 163.5 C45.5625 161.53125 45.5625 161.53125 47 160 C47.66 160 48.32 160 49 160 C50.53017361 158.40963415 50.53017361 158.40963415 52.125 156.375 C55.16971548 152.77842984 58.32682327 150.08851388 62.15625 147.37109375 C64.22570169 145.90157527 64.22570169 145.90157527 66.625 143.375 C69.20290325 140.79709675 71.93149872 138.95268263 75 137 C76.24660324 135.94945399 76.24660324 135.94945399 76.375 133.625 C76.189375 132.325625 76.189375 132.325625 76 131 C73.78307606 129.33542672 73.78307606 129.33542672 71 128 C68.1875 125.9375 68.1875 125.9375 66 124 C66 123.34 66 122.68 66 122 C65.34 121.67 64.68 121.34 64 121 C62.66666667 119.66666667 61.33333333 118.33333333 60 117 C56.77877153 114.12442846 53.59654501 111.39769668 50 109 C49.525625 108.154375 49.05125 107.30875 48.5625 106.4375 C47.27766056 103.83913451 47.27766056 103.83913451 45 103.4375 C44.01 103.2209375 44.01 103.2209375 43 103 C40 99.67857143 40 99.67857143 40 97 C39.44570313 96.75894531 38.89140625 96.51789063 38.3203125 96.26953125 C35.48734964 94.71950948 33.28907882 92.83134612 30.875 90.6875 C30.00617188 89.92824219 29.13734375 89.16898437 28.2421875 88.38671875 C25.96070366 85.95817063 25.15930543 84.06654986 24 81 C22.34385343 80.61781233 20.67542976 80.28604898 19 80 C17.5 78.25 17.5 78.25 16 76 C13.42516657 73.2964249 11.11127191 71.07418127 8 69 C6.77461411 68.06356973 5.56681016 67.10380579 4.375 66.125 C3.76398438 65.63257813 3.15296875 65.14015625 2.5234375 64.6328125 C0.79046471 62.77542115 0.39695133 61.4782637 0 59 C-0.8971875 58.9071875 -0.8971875 58.9071875 -1.8125 58.8125 C-4.97519894 57.63778325 -5.54396239 55.99820703 -7 53 C-8.92935158 38.62443922 -6.19681504 22.24413216 -4 8 C-3.67 7.67 -3.34 7.34 -3 7 C-2.95919217 5.00041636 -2.95745644 2.99954746 -3 1 C-2.01 0.67 -1.02 0.34 0 0 Z " fill="#F76121" transform="translate(250,70)"/>
<path d="M0 0 C1.32 0.33 2.64 0.66 4 1 C0.24026424 5.46400903 -3.437599 9.3500792 -8 13 C-9.0819328 14.19096478 -10.14216468 15.40178711 -11.1875 16.625 C-22.34148849 29.67074424 -22.34148849 29.67074424 -27 32 C-26.24849977 35.27773504 -26.24849977 35.27773504 -23 37 C-23 37.66 -23 38.32 -23 39 C-22.34 39 -21.68 39 -21 39 C-19.44921875 40.57421875 -19.44921875 40.57421875 -17.6875 42.6875 C-14.11011422 46.89444643 -10.30931221 50.75158603 -6.3125 54.5625 C-4.28828954 56.69612724 -3.09664677 58.30823065 -2 61 C-5.3529984 59.82191948 -7.7552529 58.80593388 -10 56 C-10.33 55.01 -10.66 54.02 -11 53 C-12.63631892 51.95107762 -14.30485863 50.95093297 -16 50 C-16.66 49.34 -17.32 48.68 -18 48 C-18 47.01 -18 46.02 -18 45 C-18.86625 44.9071875 -18.86625 44.9071875 -19.75 44.8125 C-22.92448483 43.66615826 -24.12848575 41.74043158 -26 39 C-26 38.34 -26 37.68 -26 37 C-27.32 36.67 -28.64 36.34 -30 36 C-30.8125 33.8125 -30.8125 33.8125 -31 31 C-28.875 28.5 -28.875 28.5 -26 26 C-24.7625 24.7625 -24.7625 24.7625 -23.5 23.5 C-21 21 -18.5 18.5 -16 16 C-15.21625 15.195625 -14.4325 14.39125 -13.625 13.5625 C-11.60992836 11.59540625 -9.59478375 9.79850308 -7.4375 8 C-4.56771351 5.58135899 -2.23187489 3.03534984 0 0 Z " fill="#F6692D" transform="translate(153,270)"/>
<path d="M0 0 C0.8125 1.625 0.8125 1.625 1 4 C-2.79948914 9.42784163 -2.79948914 9.42784163 -5.8359375 10.875 C-8.82560959 12.42919777 -10.98006586 14.57775921 -13.4375 16.875 C-23.22985075 26 -23.22985075 26 -27 26 C-25.58852088 22.47130219 -24.36906104 21.58544049 -21 20 C-19.62298702 18.71182656 -18.29355827 17.37195574 -17 16 C-15.33333333 14.33333333 -13.66666667 12.66666667 -12 11 C-11.175 10.13375 -10.35 9.2675 -9.5 8.375 C-7.11886217 6.11291906 -4.80458598 4.66759166 -2 3 C-1.34 2.01 -0.68 1.02 0 0 Z " fill="#F96E2D" transform="translate(286,240)"/>
<path d="M0 0 C0.99 0.33 1.98 0.66 3 1 C2 4 2 4 -0.25 5.25 C-3.42145232 7.26819693 -4.81774224 9.34097256 -6.7890625 12.4765625 C-8 14 -8 14 -11 15 C-12.70586575 16.62652316 -14.3777546 18.29006566 -16 20 C-16.99 19.67 -17.98 19.34 -19 19 C-12.73 12.73 -6.46 6.46 0 0 Z " fill="#F56C2F" transform="translate(309,270)"/>
<path d="M0 0 C0.33 0.66 0.66 1.32 1 2 C-0.375 4 -0.375 4 -2 6 C-2.66 6 -3.32 6 -4 6 C-4.3403125 6.86625 -4.3403125 6.86625 -4.6875 7.75 C-6.33488275 10.57408471 -8.43454838 11.9976963 -11 14 C-11.556875 14.7425 -12.11375 15.485 -12.6875 16.25 C-13.120625 16.8275 -13.55375 17.405 -14 18 C-14.66 18 -15.32 18 -16 18 C-16 18.66 -16 19.32 -16 20 C-16.66 20 -17.32 20 -18 20 C-18 20.66 -18 21.32 -18 22 C-19.53125 23.2890625 -19.53125 23.2890625 -21.5 24.625 C-22.1496875 25.07101563 -22.799375 25.51703125 -23.46875 25.9765625 C-23.9740625 26.31429687 -24.479375 26.65203125 -25 27 C-23.17541854 22.41155551 -19.57643623 19.47057887 -16.07617188 16.15429688 C-13.13573637 13.30909815 -11.02779705 10.53772593 -9 7 C-7.6846659 6.29848848 -6.34882408 5.63474075 -5 5 C-3.29503463 3.37253306 -1.62102968 1.71108689 0 0 Z " fill="#F76D29" transform="translate(224,201)"/>
<path d="M0 0 C0.66 0.33 1.32 0.66 2 1 C0.44396229 4.81936528 -1.95604931 7.26044438 -5 10 C-5.66 10 -6.32 10 -7 10 C-7 10.66 -7 11.32 -7 12 C-12.47619048 17 -12.47619048 17 -15 17 C-13.62694425 12.506363 -11.72179536 10.76970817 -8 8 C-6.31337542 6.35353315 -4.64488294 4.68816933 -3 3 C-2 2 -1 1 0 0 Z " fill="#FA6924" transform="translate(306,222)"/>
<path d="M0 0 C0.66 0.99 1.32 1.98 2 3 C1.113125 3.680625 0.22625 4.36125 -0.6875 5.0625 C-3.70531215 7.54065633 -5.69436682 10.23194587 -7.7265625 13.546875 C-9.34066456 15.38873379 -10.62408224 15.61905116 -13 16 C-13 13 -13 13 -11.5390625 11.17578125 C-10.59160156 10.25345703 -10.59160156 10.25345703 -9.625 9.3125 C-8.68527344 8.37857422 -8.68527344 8.37857422 -7.7265625 7.42578125 C-6 6 -6 6 -4 6 C-3.566875 5.071875 -3.566875 5.071875 -3.125 4.125 C-2 2 -2 2 0 0 Z " fill="#F56B32" transform="translate(333,246)"/>
<path d="M0 0 C0.99 0.99 1.98 1.98 3 3 C2.67 3.99 2.34 4.98 2 6 C1.34 5.67 0.68 5.34 0 5 C0 7.31 0 9.62 0 12 C-1.32 12.33 -2.64 12.66 -4 13 C-4.042721 11.33388095 -4.04063832 9.66617115 -4 8 C-3.67 7.67 -3.34 7.34 -3 7 C-2.95919217 5.00041636 -2.95745644 2.99954746 -3 1 C-2.01 0.67 -1.02 0.34 0 0 Z " fill="#ED6715" transform="translate(250,70)"/>
<path d="M0 0 C4.24426822 0.49028616 6.01792037 1.55455549 8.75 4.8125 C9.34296875 5.49957031 9.9359375 6.18664062 10.546875 6.89453125 C11.99080291 8.9866741 12.57578399 10.5161036 13 13 C9.11276476 11.52553146 8.06098117 9.4947072 6 6 C5.01 5.67 4.02 5.34 3 5 C3 4.34 3 3.68 3 3 C2.01 2.67 1.02 2.34 0 2 C0 1.34 0 0.68 0 0 Z " fill="#F87536" transform="translate(236,418)"/>
<path d="M0 0 C0.33 1.32 0.66 2.64 1 4 C-0.98 4.99 -2.96 5.98 -5 7 C-5 8.65 -5 10.3 -5 12 C-6.9375 11.625 -6.9375 11.625 -9 11 C-9.33 10.34 -9.66 9.68 -10 9 C-6.83047153 5.73991357 -3.60062011 2.77762123 0 0 Z " fill="#F96F29" transform="translate(180,293)"/>
<path d="M0 0 C0.66 0 1.32 0 2 0 C1.6875 1.9375 1.6875 1.9375 1 4 C0.01 4.33 -0.98 4.66 -2 5 C-3.09166275 6.93330603 -3.09166275 6.93330603 -4 9 C-4.66 9.66 -5.32 10.32 -6 11 C-8.125 10.625 -8.125 10.625 -10 10 C-9.0925 9.278125 -8.185 8.55625 -7.25 7.8125 C-5.07692682 6.01868959 -3.53916537 4.42395671 -1.75 2.1875 C-1.1725 1.465625 -0.595 0.74375 0 0 Z " fill="#F36C31" transform="translate(169,254)"/>
<path d="M0 0 C0 3 0 3 -1.875 5.1875 C-4 7 -4 7 -6 7 C-6 7.66 -6 8.32 -6 9 C-7.98 9.33 -9.96 9.66 -12 10 C-4.57142857 0 -4.57142857 0 0 0 Z " fill="#F87524" transform="translate(238,243)"/>
<path d="M0 0 C0.33 0.99 0.66 1.98 1 3 C0.236875 3.7425 -0.52625 4.485 -1.3125 5.25 C-3.9607804 7.81255089 -3.9607804 7.81255089 -5.625 10.3125 C-6.305625 11.1478125 -6.305625 11.1478125 -7 12 C-7.99 12 -8.98 12 -10 12 C-10 11.01 -10 10.02 -10 9 C-9.34 9 -8.68 9 -8 9 C-7.79375 8.443125 -7.5875 7.88625 -7.375 7.3125 C-5.44999226 4.07498698 -2.96149098 2.31768859 0 0 Z " fill="#F77235" transform="translate(378,202)"/>
<path d="M0 0 C0.66 0 1.32 0 2 0 C0.6910959 3.92671231 -0.7076204 6.43926031 -4 9 C-7.25 9.75 -7.25 9.75 -10 10 C-5.25 5.125 -5.25 5.125 -3 4 C-2.505 3.319375 -2.01 2.63875 -1.5 1.9375 C-1.005 1.298125 -0.51 0.65875 0 0 Z " fill="#FB7030" transform="translate(218,259)"/>
<path d="M0 0 C3.80635497 3.20760251 7.54563567 6.40746109 11 10 C10.34 10.66 9.68 11.32 9 12 C6.42002086 10.30966884 5.04951997 9.08665995 3.5 6.375 C2.23119477 3.83418336 2.23119477 3.83418336 -0.1875 3.1875 C-0.785625 3.125625 -1.38375 3.06375 -2 3 C-1 1 -1 1 0 0 Z " fill="#F86E32" transform="translate(295,170)"/>
<path d="M0 0 C-0.29899215 3.58790575 -0.76986601 4.78166776 -3.4375 7.3125 C-6 9 -6 9 -8 9 C-7.53918323 4.85264908 -4.48412936 0 0 0 Z " fill="#FA792B" transform="translate(367,214)"/>
<path d="M0 0 C3.05398761 1.19887943 5.30831155 2.96504483 7.75 5.125 C8.67039062 5.93324219 8.67039062 5.93324219 9.609375 6.7578125 C10.06828125 7.16773438 10.5271875 7.57765625 11 8 C10.67 8.66 10.34 9.32 10 10 C9.01 9.67 8.02 9.34 7 9 C6.67 8.34 6.34 7.68 6 7 C4.33720673 5.9935725 2.67016516 4.99414593 1 4 C-0.8125 2.3125 -0.8125 2.3125 -2 1 C-1.34 0.67 -0.68 0.34 0 0 Z " fill="#F66E25" transform="translate(320,194)"/>
<path d="M0 0 C1.14926266 0.95421808 2.29430541 1.91352045 3.4375 2.875 C4.07558594 3.40867188 4.71367187 3.94234375 5.37109375 4.4921875 C7 6 7 6 8 8 C7.67 8.66 7.34 9.32 7 10 C6.01 9.67 5.02 9.34 4 9 C4 8.34 4 7.68 4 7 C2.68 6.34 1.36 5.68 0 5 C0 3.33333333 0 1.66666667 0 0 Z " fill="#F46D1E" transform="translate(305,125)"/>
<path d="M0 0 C4.41889613 1.35021826 6.34345343 3.26115668 9 7 C8.67 7.66 8.34 8.32 8 9 C4.59680547 7.86560182 3.31170301 6.69698684 1 4 C0.25 1.75 0.25 1.75 0 0 Z " fill="#F36A2D" transform="translate(211,392)"/>
<path d="M0 0 C0.99 0.33 1.98 0.66 3 1 C2.57847656 1.48210937 2.15695312 1.96421875 1.72265625 2.4609375 C1.17480469 3.09257812 0.62695312 3.72421875 0.0625 4.375 C-0.48277344 5.00148438 -1.02804687 5.62796875 -1.58984375 6.2734375 C-3.06958624 7.95632334 -3.06958624 7.95632334 -4 10 C-4.66 10 -5.32 10 -6 10 C-5.58578031 5.16743695 -3.53586014 3.17320782 0 0 Z " fill="#F97233" transform="translate(282,297)"/>
<path d="M0 0 C2.96404505 2.80804268 5.44499019 5.18315774 7 9 C6.01 9.495 6.01 9.495 5 10 C3.62437146 8.71034824 2.29233607 7.37310707 1 6 C1 5.34 1 4.68 1 4 C0.01 3.67 -0.98 3.34 -2 3 C-2 2.34 -2 1.68 -2 1 C-1.34 0.67 -0.68 0.34 0 0 Z " fill="#F26A2F" transform="translate(316,136)"/>
<path d="M0 0 C0.99 0.66 1.98 1.32 3 2 C0.19195732 4.96404505 -2.18315774 7.44499019 -6 9 C-4.68775452 5.06326356 -3.08089673 2.77280706 0 0 Z " fill="#FA742A" transform="translate(297,230)"/>
<path d="M0 0 C0 0.99 0 1.98 0 3 C-0.99 3.33 -1.98 3.66 -3 4 C-3.309375 4.61875 -3.61875 5.2375 -3.9375 5.875 C-5.23057377 8.46114754 -6.506164 9.56415503 -9 11 C-9.99 10.67 -10.98 10.34 -12 10 C-8.04 6.7 -4.08 3.4 0 0 Z " fill="#F86D28" transform="translate(206,270)"/>
<path d="M0 0 C-0.1875 2.3125 -0.1875 2.3125 -1 5 C-5.03448276 8 -5.03448276 8 -8 8 C-6.48291727 4.46014029 -4.24676932 0 0 0 Z " fill="#FA6E2F" transform="translate(260,223)"/>
<path d="M0 0 C4.29238623 1.65091778 6.8793915 4.73754566 10 8 C9.67 8.66 9.34 9.32 9 10 C7.49147143 8.90751403 5.99337169 7.80061501 4.5 6.6875 C3.24703125 5.76517578 3.24703125 5.76517578 1.96875 4.82421875 C1.3190625 4.22222656 0.669375 3.62023437 0 3 C0 2.01 0 1.02 0 0 Z " fill="#F36A29" transform="translate(152,332)"/>
<path d="M0 0 C0.33 0.66 0.66 1.32 1 2 C-2.625 7.75 -2.625 7.75 -6 10 C-6.66 9.34 -7.32 8.68 -8 8 C-5.33333333 5.33333333 -2.66666667 2.66666667 0 0 Z " fill="#FB7C39" transform="translate(131,292)"/>
<path d="M0 0 C0.86625 0.3403125 0.86625 0.3403125 1.75 0.6875 C0.6053125 1.5846875 0.6053125 1.5846875 -0.5625 2.5 C-2.5983575 4.15709332 -4.4478279 5.79047674 -6.25 7.6875 C-6.5 5.375 -6.5 5.375 -6.25 2.6875 C-4.11319077 0.39806154 -3.15626895 -0.43837069 0 0 Z " fill="#F7732E" transform="translate(234.25,192.3125)"/>
<path d="M0 0 C0 2.71929057 -0.05620165 4.4832044 -1 7 C-4.32142857 10 -4.32142857 10 -7 10 C-5.98915883 6.96747648 -5.01899208 5.65971447 -2.9375 3.3125 C-2.38964844 2.68988281 -1.84179688 2.06726563 -1.27734375 1.42578125 C-0.85582031 0.95527344 -0.43429688 0.48476562 0 0 Z " fill="#EC581B" transform="translate(200,223)"/>
<path d="M0 0 C-0.40683495 2.35964273 -0.89814339 3.85934088 -2.3125 5.8125 C-2.869375 6.204375 -3.42625 6.59625 -4 7 C-6.10546875 6.57421875 -6.10546875 6.57421875 -8 6 C-7.0479279 4.99403703 -6.08812654 3.99538437 -5.125 3 C-4.59132813 2.443125 -4.05765625 1.88625 -3.5078125 1.3125 C-2 0 -2 0 0 0 Z " fill="#F76F2E" transform="translate(358,223)"/>
<path d="M0 0 C-1.50223584 4.20626034 -4.28550034 5.73900021 -8 8 C-6.65580512 3.85539913 -4.87800266 0 0 0 Z " fill="#F87434" transform="translate(258,324)"/>
<path d="M0 0 C2.66666667 1.33333333 5.33333333 2.66666667 8 4 C7.67 5.32 7.34 6.64 7 8 C5.8274869 7.04882866 4.66212985 6.08882991 3.5 5.125 C2.8503125 4.59132813 2.200625 4.05765625 1.53125 3.5078125 C1.0259375 3.01023437 0.520625 2.51265625 0 2 C0 1.34 0 0.68 0 0 Z " fill="#FB7024" transform="translate(258,80)"/>
<path d="M0 0 C2.475 0.495 2.475 0.495 5 1 C5.33 2.32 5.66 3.64 6 5 C6.66 5 7.32 5 8 5 C7.67 5.99 7.34 6.98 7 8 C5.8274869 7.04882866 4.66212985 6.08882991 3.5 5.125 C2.8503125 4.59132813 2.200625 4.05765625 1.53125 3.5078125 C1.0259375 3.01023437 0.520625 2.51265625 0 2 C0 1.34 0 0.68 0 0 Z " fill="#FB6C2E" transform="translate(249,372)"/>
<path d="M0 0 C0.33 0.66 0.66 1.32 1 2 C-0.25 4.625 -0.25 4.625 -2 7 C-5 7 -5 7 -7 6 C-6.401875 5.7525 -5.80375 5.505 -5.1875 5.25 C-2.71352479 3.83629988 -1.56629745 2.34944617 0 0 Z " fill="#F66E18" transform="translate(250,272)"/>
<path d="M0 0 C0.33 0.99 0.66 1.98 1 3 C1.66 3.33 2.32 3.66 3 4 C2.67 4.99 2.34 5.98 2 7 C0.68 6.67 -0.64 6.34 -2 6 C-2 4.68 -2 3.36 -2 2 C-1.34 2 -0.68 2 0 2 C0 1.34 0 0.68 0 0 Z " fill="#ED6725" transform="translate(248,326)"/>
<path d="M0 0 C0.99 0.33 1.98 0.66 3 1 C0.69 2.65 -1.62 4.3 -4 6 C-4.33 5.01 -4.66 4.02 -5 3 C-2.6875 1.4375 -2.6875 1.4375 0 0 Z " fill="#FB6D31" transform="translate(263,318)"/>
<path d="M0 0 C0.66 0 1.32 0 2 0 C1.67 1.65 1.34 3.3 1 5 C-0.32 5.33 -1.64 5.66 -3 6 C-2.42655063 3.13275314 -2.1385485 2.1385485 0 0 Z " fill="#FB7537" transform="translate(270,309)"/>
<path d="M0 0 C0.66 0 1.32 0 2 0 C1.1875 2.9375 1.1875 2.9375 0 6 C-0.99 6.33 -1.98 6.66 -3 7 C-2.25 2.25 -2.25 2.25 0 0 Z " fill="#FA6F33" transform="translate(288,291)"/>
<path d="M0 0 C0.66 0.99 1.32 1.98 2 3 C0.68 4.32 -0.64 5.64 -2 7 C-2.99 6.67 -3.98 6.34 -5 6 C-3.35 4.02 -1.7 2.04 0 0 Z " fill="#EC632D" transform="translate(192,231)"/>
<path d="M0 0 C1.65 1.32 3.3 2.64 5 4 C4.67 4.99 4.34 5.98 4 7 C2.35 5.68 0.7 4.36 -1 3 C-0.67 2.01 -0.34 1.02 0 0 Z " fill="#F86B2F" transform="translate(277,153)"/>
<path d="M0 0 C1.9375 0.8125 1.9375 0.8125 4 2 C4.33 2.99 4.66 3.98 5 5 C5.66 5.33 6.32 5.66 7 6 C5.68 6.33 4.36 6.66 3 7 C2.690625 6.21625 2.38125 5.4325 2.0625 4.625 C1.07124962 2.07669872 1.07124962 2.07669872 0 0 Z " fill="#F66F2C" transform="translate(190,370)"/>
<path d="M0 0 C5.66153846 2.46153846 5.66153846 2.46153846 7.375 5.1875 C7.58125 5.785625 7.7875 6.38375 8 7 C4.66272214 5.82744291 2.22562513 4.81131596 0 2 C0 1.34 0 0.68 0 0 Z " fill="#F56F41" transform="translate(143,324)"/>
<path d="M0 0 C0.66 0 1.32 0 2 0 C1.60196439 2.88575819 1.20990931 3.82189513 -1.0625 5.75 C-1.701875 6.1625 -2.34125 6.575 -3 7 C-2.25 2.25 -2.25 2.25 0 0 Z " fill="#FB6B37" transform="translate(224,254)"/>
<path d="M0 0 C0 2 0 2 -1.25 3.6875 C-1.8275 4.120625 -2.405 4.55375 -3 5 C-5.1875 4.6875 -5.1875 4.6875 -7 4 C-3.375 0 -3.375 0 0 0 Z " fill="#FB7A39" transform="translate(251,176)"/>
<path d="M0 0 C1.65 0 3.3 0 5 0 C5.66 1.32 6.32 2.64 7 4 C4.625 3.6875 4.625 3.6875 2 3 C1.34 2.01 0.68 1.02 0 0 Z " fill="#F86B36" transform="translate(228,411)"/>
<path d="M0 0 C0.763125 0.0825 1.52625 0.165 2.3125 0.25 C1.3225 0.745 1.3225 0.745 0.3125 1.25 C0.3125 1.91 0.3125 2.57 0.3125 3.25 C-1.6675 3.58 -3.6475 3.91 -5.6875 4.25 C-3.34903846 0.31153846 -3.34903846 0.31153846 0 0 Z " fill="#FB6E2E" transform="translate(231.6875,248.75)"/>
<path d="M0 0 C0 3.99904969 -1.72586967 5.80200422 -4 9 C-4.8125 7.3125 -4.8125 7.3125 -5 5 C-2.5625 2.25 -2.5625 2.25 0 0 Z " fill="#F4681A" transform="translate(313,216)"/>
<path d="M0 0 C0.99 0 1.98 0 3 0 C2.34 1.32 1.68 2.64 1 4 C0.34 4 -0.32 4 -1 4 C-1.33 4.66 -1.66 5.32 -2 6 C-2 2 -2 2 0 0 Z " fill="#F86B2E" transform="translate(239,185)"/>
<path d="M0 0 C3.57104439 1.87949705 5.54744301 3.17053157 7 7 C4.08482708 5.92598892 2.22189824 5.22189824 0 3 C0 2.01 0 1.02 0 0 Z " fill="#F26D2C" transform="translate(285,161)"/>
<path d="M0 0 C2.97 1.98 2.97 1.98 6 4 C4.25 4.75 4.25 4.75 2 5 C-0.25 3.0625 -0.25 3.0625 -2 1 C-1.34 0.67 -0.68 0.34 0 0 Z " fill="#F97116" transform="translate(247,368)"/>
<path d="M0 0 C0.33 0 0.66 0 1 0 C1 2.31 1 4.62 1 7 C0.01 7 -0.98 7 -2 7 C-2 5.35 -2 3.7 -2 2 C-1.34 2 -0.68 2 0 2 C0 1.34 0 0.68 0 0 Z " fill="#E25E1B" transform="translate(248,76)"/>
<path d="M0 0 C0.33 0 0.66 0 1 0 C1 1.98 1 3.96 1 6 C0.67 6 0.34 6 0 6 C0 4.02 0 2.04 0 0 Z " fill="#FF5800" transform="translate(257,414)"/>
<path d="M0 0 C0.33 0 0.66 0 1 0 C1 1.98 1 3.96 1 6 C0.67 6 0.34 6 0 6 C0 4.02 0 2.04 0 0 Z " fill="#FF550D" transform="translate(257,184)"/>
<path d="" fill="#FF0000" transform="translate(0,0)"/>
<path d="" fill="#FF0000" transform="translate(0,0)"/>
<path d="" fill="#FF6D00" transform="translate(0,0)"/>
<path d="" fill="#FF0000" transform="translate(0,0)"/>
<path d="" fill="#FF0000" transform="translate(0,0)"/>
<path d="" fill="#FFFF00" transform="translate(0,0)"/>
<path d="" fill="#FF0000" transform="translate(0,0)"/>
<path d="" fill="#FFFF00" transform="translate(0,0)"/>
<path d="" fill="#FF0000" transform="translate(0,0)"/>
<path d="" fill="#FF0000" transform="translate(0,0)"/>
<path d="" fill="#FF0000" transform="translate(0,0)"/>
<path d="" fill="#FF0000" transform="translate(0,0)"/>
<path d="" fill="#FF5100" transform="translate(0,0)"/>
<path d="" fill="#FF7B00" transform="translate(0,0)"/>
<path d="" fill="#FF0F00" transform="translate(0,0)"/>
<path d="" fill="#FF2200" transform="translate(0,0)"/>
<path d="" fill="#FF8000" transform="translate(0,0)"/>
<path d="" fill="#FF5C00" transform="translate(0,0)"/>
<path d="" fill="#FF7C00" transform="translate(0,0)"/>
<path d="" fill="#FF0000" transform="translate(0,0)"/>
<path d="" fill="#FF7F00" transform="translate(0,0)"/>
<path d="" fill="#FF0000" transform="translate(0,0)"/>
<path d="" fill="#FF0000" transform="translate(0,0)"/>
<path d="" fill="#FF7800" transform="translate(0,0)"/>
<path d="" fill="#FF9800" transform="translate(0,0)"/>
<path d="" fill="#FF8000" transform="translate(0,0)"/>
<path d="" fill="#FF6700" transform="translate(0,0)"/>
<path d="" fill="#FF0000" transform="translate(0,0)"/>
<path d="" fill="#FF0000" transform="translate(0,0)"/>
<path d="" fill="#FF0000" transform="translate(0,0)"/>
<path d="" fill="#FF7E00" transform="translate(0,0)"/>
<path d="" fill="#FF0000" transform="translate(0,0)"/>
<path d="" fill="#FF0000" transform="translate(0,0)"/>
<path d="" fill="#FF0000" transform="translate(0,0)"/>
<path d="" fill="#FF0000" transform="translate(0,0)"/>
<path d="" fill="#FF0000" transform="translate(0,0)"/>
<path d="" fill="#FF0000" transform="translate(0,0)"/>
<path d="" fill="#FF7600" transform="translate(0,0)"/>
<path d="" fill="#FF0000" transform="translate(0,0)"/>
</svg>
